<mxfile host="app.diagrams.net" agent="Mozilla/5.0 (Windows NT 10.0; Win64; x64) AppleWebKit/537.36 (KHTML, like Gecko) Chrome/131.0.0.0 Safari/537.36" version="24.9.1">
  <diagram name="Page-1" id="d6FlR1-c0LYMQShtzwIp">
    <mxGraphModel dx="1615" dy="815" grid="1" gridSize="10" guides="1" tooltips="1" connect="1" arrows="1" fold="1" page="1" pageScale="1" pageWidth="827" pageHeight="1169" math="0" shadow="0">
      <root>
        <mxCell id="0" />
        <mxCell id="1" parent="0" />
        <mxCell id="N0ZZRG3hrm455qjW9nC7-5" style="edgeStyle=orthogonalEdgeStyle;rounded=0;orthogonalLoop=1;jettySize=auto;html=1;exitX=1;exitY=0.75;exitDx=0;exitDy=0;entryX=0;entryY=0.75;entryDx=0;entryDy=0;" edge="1" parent="1" source="N0ZZRG3hrm455qjW9nC7-1" target="N0ZZRG3hrm455qjW9nC7-2">
          <mxGeometry relative="1" as="geometry" />
        </mxCell>
        <mxCell id="N0ZZRG3hrm455qjW9nC7-6" value="Requests" style="edgeLabel;html=1;align=center;verticalAlign=middle;resizable=0;points=[];" vertex="1" connectable="0" parent="N0ZZRG3hrm455qjW9nC7-5">
          <mxGeometry x="-0.1784" relative="1" as="geometry">
            <mxPoint as="offset" />
          </mxGeometry>
        </mxCell>
        <mxCell id="N0ZZRG3hrm455qjW9nC7-9" style="edgeStyle=orthogonalEdgeStyle;rounded=0;orthogonalLoop=1;jettySize=auto;html=1;exitX=1;exitY=0.5;exitDx=0;exitDy=0;entryX=0;entryY=0.5;entryDx=0;entryDy=0;endArrow=none;endFill=0;" edge="1" parent="1" source="N0ZZRG3hrm455qjW9nC7-1" target="N0ZZRG3hrm455qjW9nC7-2">
          <mxGeometry relative="1" as="geometry" />
        </mxCell>
        <mxCell id="N0ZZRG3hrm455qjW9nC7-10" value="TCP Connection" style="edgeLabel;html=1;align=center;verticalAlign=middle;resizable=0;points=[];" vertex="1" connectable="0" parent="N0ZZRG3hrm455qjW9nC7-9">
          <mxGeometry x="-0.1889" y="4" relative="1" as="geometry">
            <mxPoint y="4" as="offset" />
          </mxGeometry>
        </mxCell>
        <mxCell id="N0ZZRG3hrm455qjW9nC7-1" value="&lt;font style=&quot;font-size: 14px;&quot;&gt;Client/Browser&lt;/font&gt;" style="rounded=0;whiteSpace=wrap;html=1;" vertex="1" parent="1">
          <mxGeometry x="34" y="60" width="120" height="60" as="geometry" />
        </mxCell>
        <mxCell id="N0ZZRG3hrm455qjW9nC7-7" style="edgeStyle=orthogonalEdgeStyle;rounded=0;orthogonalLoop=1;jettySize=auto;html=1;exitX=0;exitY=0.25;exitDx=0;exitDy=0;entryX=1;entryY=0.25;entryDx=0;entryDy=0;" edge="1" parent="1" source="N0ZZRG3hrm455qjW9nC7-2" target="N0ZZRG3hrm455qjW9nC7-1">
          <mxGeometry relative="1" as="geometry" />
        </mxCell>
        <mxCell id="N0ZZRG3hrm455qjW9nC7-8" value="Response" style="edgeLabel;html=1;align=center;verticalAlign=middle;resizable=0;points=[];" vertex="1" connectable="0" parent="N0ZZRG3hrm455qjW9nC7-7">
          <mxGeometry x="0.1574" relative="1" as="geometry">
            <mxPoint as="offset" />
          </mxGeometry>
        </mxCell>
        <mxCell id="N0ZZRG3hrm455qjW9nC7-12" style="edgeStyle=orthogonalEdgeStyle;rounded=0;orthogonalLoop=1;jettySize=auto;html=1;exitX=0.75;exitY=1;exitDx=0;exitDy=0;entryX=0.75;entryY=0;entryDx=0;entryDy=0;" edge="1" parent="1" source="N0ZZRG3hrm455qjW9nC7-2" target="N0ZZRG3hrm455qjW9nC7-11">
          <mxGeometry relative="1" as="geometry" />
        </mxCell>
        <mxCell id="N0ZZRG3hrm455qjW9nC7-15" value="Raw Frames" style="edgeLabel;html=1;align=center;verticalAlign=middle;resizable=0;points=[];" vertex="1" connectable="0" parent="N0ZZRG3hrm455qjW9nC7-12">
          <mxGeometry x="-0.0709" y="2" relative="1" as="geometry">
            <mxPoint y="23" as="offset" />
          </mxGeometry>
        </mxCell>
        <mxCell id="N0ZZRG3hrm455qjW9nC7-2" value="&lt;font style=&quot;font-size: 14px;&quot;&gt;Connection Handler&lt;/font&gt;" style="rounded=0;whiteSpace=wrap;html=1;" vertex="1" parent="1">
          <mxGeometry x="404" y="60" width="120" height="60" as="geometry" />
        </mxCell>
        <mxCell id="N0ZZRG3hrm455qjW9nC7-13" style="edgeStyle=orthogonalEdgeStyle;rounded=0;orthogonalLoop=1;jettySize=auto;html=1;exitX=0.25;exitY=0;exitDx=0;exitDy=0;entryX=0.25;entryY=1;entryDx=0;entryDy=0;" edge="1" parent="1" source="N0ZZRG3hrm455qjW9nC7-11" target="N0ZZRG3hrm455qjW9nC7-2">
          <mxGeometry relative="1" as="geometry" />
        </mxCell>
        <mxCell id="N0ZZRG3hrm455qjW9nC7-16" value="Encoded Response" style="edgeLabel;html=1;align=center;verticalAlign=middle;resizable=0;points=[];" vertex="1" connectable="0" parent="N0ZZRG3hrm455qjW9nC7-13">
          <mxGeometry x="0.1246" y="2" relative="1" as="geometry">
            <mxPoint y="-14" as="offset" />
          </mxGeometry>
        </mxCell>
        <mxCell id="N0ZZRG3hrm455qjW9nC7-18" style="edgeStyle=orthogonalEdgeStyle;rounded=0;orthogonalLoop=1;jettySize=auto;html=1;exitX=0.75;exitY=1;exitDx=0;exitDy=0;entryX=0.75;entryY=0;entryDx=0;entryDy=0;" edge="1" parent="1" source="N0ZZRG3hrm455qjW9nC7-11" target="N0ZZRG3hrm455qjW9nC7-17">
          <mxGeometry relative="1" as="geometry" />
        </mxCell>
        <mxCell id="N0ZZRG3hrm455qjW9nC7-19" value="DATA Frames" style="edgeLabel;html=1;align=center;verticalAlign=middle;resizable=0;points=[];" vertex="1" connectable="0" parent="N0ZZRG3hrm455qjW9nC7-18">
          <mxGeometry x="0.2667" relative="1" as="geometry">
            <mxPoint y="4" as="offset" />
          </mxGeometry>
        </mxCell>
        <mxCell id="N0ZZRG3hrm455qjW9nC7-23" style="edgeStyle=orthogonalEdgeStyle;rounded=0;orthogonalLoop=1;jettySize=auto;html=1;exitX=0;exitY=0.5;exitDx=0;exitDy=0;entryX=1;entryY=0.5;entryDx=0;entryDy=0;" edge="1" parent="1" source="N0ZZRG3hrm455qjW9nC7-11" target="N0ZZRG3hrm455qjW9nC7-22">
          <mxGeometry relative="1" as="geometry" />
        </mxCell>
        <mxCell id="N0ZZRG3hrm455qjW9nC7-24" value="HEADERS Frames" style="edgeLabel;html=1;align=center;verticalAlign=middle;resizable=0;points=[];" vertex="1" connectable="0" parent="N0ZZRG3hrm455qjW9nC7-23">
          <mxGeometry x="0.0462" y="-1" relative="1" as="geometry">
            <mxPoint as="offset" />
          </mxGeometry>
        </mxCell>
        <mxCell id="N0ZZRG3hrm455qjW9nC7-32" style="edgeStyle=orthogonalEdgeStyle;rounded=0;orthogonalLoop=1;jettySize=auto;html=1;exitX=1;exitY=0.5;exitDx=0;exitDy=0;entryX=0.5;entryY=0;entryDx=0;entryDy=0;" edge="1" parent="1" source="N0ZZRG3hrm455qjW9nC7-11" target="N0ZZRG3hrm455qjW9nC7-31">
          <mxGeometry relative="1" as="geometry" />
        </mxCell>
        <mxCell id="N0ZZRG3hrm455qjW9nC7-33" value="WINDOW UPDATE Frame" style="edgeLabel;html=1;align=center;verticalAlign=middle;resizable=0;points=[];" vertex="1" connectable="0" parent="N0ZZRG3hrm455qjW9nC7-32">
          <mxGeometry x="0.5883" relative="1" as="geometry">
            <mxPoint as="offset" />
          </mxGeometry>
        </mxCell>
        <mxCell id="N0ZZRG3hrm455qjW9nC7-38" style="edgeStyle=orthogonalEdgeStyle;rounded=0;orthogonalLoop=1;jettySize=auto;html=1;exitX=1;exitY=0.25;exitDx=0;exitDy=0;entryX=0.5;entryY=1;entryDx=0;entryDy=0;" edge="1" parent="1" source="N0ZZRG3hrm455qjW9nC7-11" target="N0ZZRG3hrm455qjW9nC7-36">
          <mxGeometry relative="1" as="geometry" />
        </mxCell>
        <mxCell id="N0ZZRG3hrm455qjW9nC7-39" value="Invalid Frame" style="edgeLabel;html=1;align=center;verticalAlign=middle;resizable=0;points=[];" vertex="1" connectable="0" parent="N0ZZRG3hrm455qjW9nC7-38">
          <mxGeometry x="0.6766" y="1" relative="1" as="geometry">
            <mxPoint as="offset" />
          </mxGeometry>
        </mxCell>
        <mxCell id="N0ZZRG3hrm455qjW9nC7-11" value="&lt;font style=&quot;font-size: 14px;&quot;&gt;Frame Processor&lt;/font&gt;" style="rounded=0;whiteSpace=wrap;html=1;" vertex="1" parent="1">
          <mxGeometry x="404" y="220" width="120" height="60" as="geometry" />
        </mxCell>
        <mxCell id="N0ZZRG3hrm455qjW9nC7-29" style="edgeStyle=orthogonalEdgeStyle;rounded=0;orthogonalLoop=1;jettySize=auto;html=1;exitX=0.25;exitY=0;exitDx=0;exitDy=0;entryX=0.25;entryY=1;entryDx=0;entryDy=0;" edge="1" parent="1" source="N0ZZRG3hrm455qjW9nC7-17" target="N0ZZRG3hrm455qjW9nC7-11">
          <mxGeometry relative="1" as="geometry" />
        </mxCell>
        <mxCell id="N0ZZRG3hrm455qjW9nC7-30" value="Encoded Response" style="edgeLabel;html=1;align=center;verticalAlign=middle;resizable=0;points=[];" vertex="1" connectable="0" parent="N0ZZRG3hrm455qjW9nC7-29">
          <mxGeometry x="0.4944" y="1" relative="1" as="geometry">
            <mxPoint y="10" as="offset" />
          </mxGeometry>
        </mxCell>
        <mxCell id="N0ZZRG3hrm455qjW9nC7-17" value="&lt;font style=&quot;font-size: 14px;&quot;&gt;Stream Manager&lt;/font&gt;" style="rounded=0;whiteSpace=wrap;html=1;" vertex="1" parent="1">
          <mxGeometry x="404" y="400" width="120" height="60" as="geometry" />
        </mxCell>
        <mxCell id="N0ZZRG3hrm455qjW9nC7-25" style="edgeStyle=orthogonalEdgeStyle;rounded=0;orthogonalLoop=1;jettySize=auto;html=1;exitX=0.5;exitY=1;exitDx=0;exitDy=0;entryX=0;entryY=0.5;entryDx=0;entryDy=0;" edge="1" parent="1" source="N0ZZRG3hrm455qjW9nC7-22" target="N0ZZRG3hrm455qjW9nC7-17">
          <mxGeometry relative="1" as="geometry" />
        </mxCell>
        <mxCell id="N0ZZRG3hrm455qjW9nC7-28" value="&lt;span style=&quot;line-height: 107%; font-family: Arial, sans-serif;&quot;&gt;&lt;font style=&quot;font-size: 12px;&quot;&gt;Compressed or decompressed header data&amp;nbsp;&lt;/font&gt;&lt;/span&gt;" style="edgeLabel;html=1;align=center;verticalAlign=middle;resizable=0;points=[];" vertex="1" connectable="0" parent="N0ZZRG3hrm455qjW9nC7-25">
          <mxGeometry x="0.2382" y="4" relative="1" as="geometry">
            <mxPoint x="26" y="4" as="offset" />
          </mxGeometry>
        </mxCell>
        <mxCell id="N0ZZRG3hrm455qjW9nC7-22" value="&lt;font style=&quot;font-size: 14px;&quot;&gt;HPACK&lt;/font&gt;" style="rounded=0;whiteSpace=wrap;html=1;" vertex="1" parent="1">
          <mxGeometry x="34" y="220" width="120" height="60" as="geometry" />
        </mxCell>
        <mxCell id="N0ZZRG3hrm455qjW9nC7-34" style="edgeStyle=orthogonalEdgeStyle;rounded=0;orthogonalLoop=1;jettySize=auto;html=1;exitX=0;exitY=0.5;exitDx=0;exitDy=0;entryX=1;entryY=0.5;entryDx=0;entryDy=0;" edge="1" parent="1" source="N0ZZRG3hrm455qjW9nC7-31" target="N0ZZRG3hrm455qjW9nC7-17">
          <mxGeometry relative="1" as="geometry" />
        </mxCell>
        <mxCell id="N0ZZRG3hrm455qjW9nC7-35" value="Controls" style="edgeLabel;html=1;align=center;verticalAlign=middle;resizable=0;points=[];" vertex="1" connectable="0" parent="N0ZZRG3hrm455qjW9nC7-34">
          <mxGeometry x="0.0178" y="1" relative="1" as="geometry">
            <mxPoint as="offset" />
          </mxGeometry>
        </mxCell>
        <mxCell id="N0ZZRG3hrm455qjW9nC7-31" value="&lt;font style=&quot;font-size: 14px;&quot;&gt;Flow Control&lt;/font&gt;" style="rounded=0;whiteSpace=wrap;html=1;" vertex="1" parent="1">
          <mxGeometry x="674" y="400" width="120" height="60" as="geometry" />
        </mxCell>
        <mxCell id="N0ZZRG3hrm455qjW9nC7-40" style="edgeStyle=orthogonalEdgeStyle;rounded=0;orthogonalLoop=1;jettySize=auto;html=1;exitX=0;exitY=0.5;exitDx=0;exitDy=0;entryX=1;entryY=0.5;entryDx=0;entryDy=0;" edge="1" parent="1" source="N0ZZRG3hrm455qjW9nC7-36" target="N0ZZRG3hrm455qjW9nC7-2">
          <mxGeometry relative="1" as="geometry" />
        </mxCell>
        <mxCell id="N0ZZRG3hrm455qjW9nC7-41" value="Error Message" style="edgeLabel;html=1;align=center;verticalAlign=middle;resizable=0;points=[];" vertex="1" connectable="0" parent="N0ZZRG3hrm455qjW9nC7-40">
          <mxGeometry x="-0.0089" y="1" relative="1" as="geometry">
            <mxPoint as="offset" />
          </mxGeometry>
        </mxCell>
        <mxCell id="N0ZZRG3hrm455qjW9nC7-36" value="&lt;font style=&quot;font-size: 14px;&quot;&gt;Error Handler&lt;/font&gt;" style="rounded=0;whiteSpace=wrap;html=1;" vertex="1" parent="1">
          <mxGeometry x="674" y="60" width="120" height="60" as="geometry" />
        </mxCell>
      </root>
    </mxGraphModel>
  </diagram>
</mxfile>
